<svg width="300" height="200" xmlns="http://www.w3.org/2000/svg">
  <defs>
    <linearGradient id="bg" x1="0%" y1="0%" x2="100%" y2="100%">
      <stop offset="0%" style="stop-color:#667eea;stop-opacity:1" />
      <stop offset="100%" style="stop-color:#764ba2;stop-opacity:1" />
    </linearGradient>
  </defs>
  
  <!-- Background -->
  <rect width="300" height="200" fill="url(#bg)"/>
  
  <!-- Neural Network Nodes -->
  <circle cx="50" cy="50" r="8" fill="#fff" opacity="0.9"/>
  <circle cx="50" cy="100" r="8" fill="#fff" opacity="0.9"/>
  <circle cx="50" cy="150" r="8" fill="#fff" opacity="0.9"/>
  
  <circle cx="150" cy="40" r="8" fill="#fff" opacity="0.9"/>
  <circle cx="150" cy="80" r="8" fill="#fff" opacity="0.9"/>
  <circle cx="150" cy="120" r="8" fill="#fff" opacity="0.9"/>
  <circle cx="150" cy="160" r="8" fill="#fff" opacity="0.9"/>
  
  <circle cx="250" cy="60" r="8" fill="#fff" opacity="0.9"/>
  <circle cx="250" cy="100" r="8" fill="#fff" opacity="0.9"/>
  <circle cx="250" cy="140" r="8" fill="#fff" opacity="0.9"/>
  
  <!-- Connections -->
  <line x1="58" y1="50" x2="142" y2="40" stroke="#fff" stroke-width="2" opacity="0.6"/>
  <line x1="58" y1="50" x2="142" y2="80" stroke="#fff" stroke-width="2" opacity="0.6"/>
  <line x1="58" y1="100" x2="142" y2="40" stroke="#fff" stroke-width="2" opacity="0.6"/>
  <line x1="58" y1="100" x2="142" y2="80" stroke="#fff" stroke-width="2" opacity="0.6"/>
  <line x1="58" y1="100" x2="142" y2="120" stroke="#fff" stroke-width="2" opacity="0.6"/>
  <line x1="58" y1="150" x2="142" y2="120" stroke="#fff" stroke-width="2" opacity="0.6"/>
  <line x1="58" y1="150" x2="142" y2="160" stroke="#fff" stroke-width="2" opacity="0.6"/>
  
  <line x1="158" y1="40" x2="242" y2="60" stroke="#fff" stroke-width="2" opacity="0.6"/>
  <line x1="158" y1="40" x2="242" y2="100" stroke="#fff" stroke-width="2" opacity="0.6"/>
  <line x1="158" y1="80" x2="242" y2="60" stroke="#fff" stroke-width="2" opacity="0.6"/>
  <line x1="158" y1="80" x2="242" y2="100" stroke="#fff" stroke-width="2" opacity="0.6"/>
  <line x1="158" y1="80" x2="242" y2="140" stroke="#fff" stroke-width="2" opacity="0.6"/>
  <line x1="158" y1="120" x2="242" y2="100" stroke="#fff" stroke-width="2" opacity="0.6"/>
  <line x1="158" y1="120" x2="242" y2="140" stroke="#fff" stroke-width="2" opacity="0.6"/>
  <line x1="158" y1="160" x2="242" y2="140" stroke="#fff" stroke-width="2" opacity="0.6"/>
  
  <!-- Title -->
  <text x="150" y="190" text-anchor="middle" fill="#fff" font-family="Arial, sans-serif" font-size="16" font-weight="bold">Morpho-VAE</text>
</svg>
